<svg xmlns="http://www.w3.org/2000/svg" width="30" viewBox="0 0 30 30" height="30" version="1.0"><defs><clipPath id="a"><path d="M 3.9375 3 L 25.714844 3 L 25.714844 26 L 3.9375 26 Z M 3.9375 3"/></clipPath></defs><g clip-path="url(#a)"><path d="M 14.824219 3.128906 C 8.824219 3.128906 3.9375 7.839844 3.9375 13.632812 C 3.9375 16.445312 5.125 19.148438 7.203125 21.121094 L 7.203125 25.925781 L 11.648438 23.671875 C 12.691406 23.980469 13.757812 24.136719 14.824219 24.136719 C 20.828125 24.136719 25.714844 19.421875 25.714844 13.632812 C 25.714844 7.839844 20.828125 3.128906 14.824219 3.128906 Z M 16.097656 16.855469 L 12.921875 14.277344 L 7.203125 16.855469 L 13.554688 10.40625 L 16.730469 12.988281 L 22.445312 10.40625 Z M 16.097656 16.855469"/></g></svg>