<svg xmlns="http://www.w3.org/2000/svg" width="30" viewBox="0 0 30 30" height="30" version="1.0"><defs><clipPath id="a"><path d="M 3.386719 5 L 26.613281 5 L 26.613281 24.417969 L 3.386719 24.417969 Z M 3.386719 5"/></clipPath></defs><g clip-path="url(#a)"><path d="M 12.601562 17.640625 L 12.226562 22.964844 C 12.761719 22.964844 12.996094 22.730469 13.273438 22.453125 L 15.785156 20.023438 L 20.992188 23.878906 C 21.949219 24.417969 22.621094 24.132812 22.878906 22.992188 L 26.296875 6.804688 C 26.601562 5.378906 25.785156 4.820312 24.855469 5.171875 L 4.765625 12.945312 C 3.394531 13.480469 3.414062 14.253906 4.53125 14.605469 L 9.667969 16.21875 L 21.601562 8.675781 C 22.160156 8.296875 22.671875 8.507812 22.25 8.882812 Z M 12.601562 17.640625"/></g></svg>